<?xml version="1.0" encoding="UTF-8"?>
<svg version="1.1" viewBox="0 0 2048 2048" width="512" height="512" xmlns="http://www.w3.org/2000/svg">
<path transform="translate(81,796)" d="m0 0h94l6 4 3 4 1 35v272l2 22 4 16 5 10 9 10 14 8 13 4 14 2 162 1v-217l3-6 4-3 4-1h15l-10-6-10-9-6-7-6-13-3-12v-16l3-13 7-13 9-10 8-7 14-7 8-2h24l12 3 10 5 12 9 8 10 5 11 3 10 1 10-2 17-5 14-8 11-7 7-13 8h16l7 6 1 3v219h55l-1-218 4-8 4-3 6-1h69l7 3 3 5 2 13 2 22 5-2 14-12 16-11 15-8 20-7 21-5 12-2 11-1h22l21 3 20 5 15 6 16 9 15 13 9 10 10 15 7 16 5 19 2 13 1 13 1 112h51l1-267 4-6 4-2h82l7 8v159l9-7 9-10 24-28 9-11 10-11 9-11 10-11 9-11 11-13 8-5 4-1h100l4 5 2 7-6 8-12 13-9 10-11 12-7 8-15 16-7 8-14 15-9 10-24 26-5 6 1 4 10 13 13 16 9 11 14 18 18 22 12 13 11 12 8 8 11 9 11 10 16 11 15 10 18 10 29 15 23 10 29 10 22 7 25 7 33 7 38 6 39 4 32 2h68l48-3 31-4 25-5 27-7 23-10 14-8 11-9 7-8 8-14 4-11 3-16 1-9-7 4-10 7-15 9-16 7-19 5-20 3-10 1h-25l-27-4-16-5-18-8-12-8-12-11-9-11-10-19-5-16-3-13-2-20-1-97-27-3-25-5-20-6-40-13-26-6-28-4h-31l-18 3-11 4-8 6-3 6-1 7 3 9 2 4 5 2 10 5 17 4 55 8 31 6 19 5 20 8 10 5 11 8 14 14 8 14 5 15 1 6v26l-3 14-6 14-7 10-9 10-9 8-15 10-17 7-24 7-26 4-18 2-17 1h-13l-28-2-27-4-26-6-24-8-25-12-15-9-5-4-2-3 1-7 15-29 8-13 5-4 8-1 8 2 21 10 27 10 20 5 29 4 20 1 22-2 18-4 10-5 5-6 2-4v-9l-4-8-7-6-9-4-14-3-38-6-34-5-24-6-27-9-15-8-14-10-9-9-7-11-6-15-2-11v-24l3-15 5-12 9-13 4-5h2l2-4 11-9 16-10 13-6 21-6 24-5 16-2 26-1 24 1 24 3 28 5 23 6 28 11 17 6 26 4 11 1 23 1h77l2 1v117l1 32 4 17 5 10 4 5v2l4 2 8 6 9 4 16 4 9 1h9l16-2 17-5 12-7 9-8 5-9 4-11 2-11 1-170 5-6 2-1h85l5 3 3 4v255l-2 26-5 25-6 21-9 19-10 14-14 15-13 11-15 10-24 12-23 9-31 10-26 6-32 6-43 6-35 3-24 1h-39l-47-2-40-4-48-7-42-8-28-7-61-20-29-12-18-8-16-8-26-14-28-17-12-8-12-9-13-10-16-13-24-22-9-10-8-8-7-8-11-13-13-17-11-13-22-28-9-11-4-3v118l-2 10-7 8-12 1h-216l-7-2-6-6-1-163-2-18-4-12-7-12-10-9-16-8-13-3-8-1h-18l-18 3-18 6-10 6-10 8-6 5-9 11-1 2-1 177-1 7-5 6-4 2-8 1h-404l-26-1-32-4-20-5-12-4-16-7-12-7-9-7-12-10v-2l-3-1-9-12-9-16-8-24-4-18-2-24-1-57v-262l2-7 6-5z" fill="#181818"/>
</svg>
