<?xml version="1.0" encoding="UTF-8"?>
<svg version="1.1" viewBox="0 0 2048 2048" width="512" height="512" xmlns="http://www.w3.org/2000/svg">
<path transform="translate(983,673)" d="m0 0h75l8 4 4 5 2 7v255l5-3 14-15 7-8 12-14 10-11 9-11 15-16 9-11 9-10 7-8 9-6 5-1h92l7 2 4 6-1 6-11 12-7 8-10 11-7 8-9 10-9 11-11 12-7 8-11 12-7 8-11 12-7 8-10 11 6 9 16 21 10 13 11 14 9 10 12 14 12 12 7 8 13 12 8 7 12 10 16 12 11 7 21 13 14 8 28 13 29 12 36 12 23 6 36 8 42 6 43 4 32 2h47l48-3 41-5 26-5 24-7 15-6 19-10 11-8 10-10 7-11 6-12 4-14 2-19-8 7-10 10-14 9-19 8-23 6-14 2h-34l-20-3-24-8-21-11-13-10-8-8-10-14-8-17-7-24-2-12-2-19v-170l3-7 8-6 5-1h63l13 1 8 6 3 6 1 163 2 13 4 11 7 11 9 8 15 7 7 2 9 1h20l16-3 13-5 12-7 9-9 6-12 3-13 1-17v-150l2-5 8-7 5-1h68l9 2 7 6 2 4v259l-3 19-6 25-5 15-10 21-12 16-9 10-10 10-17 13-21 12-23 11-28 10-27 7-31 6-32 4-52 4-20 1h-77l-55-4-33-4-38-7-37-8-40-11-29-10-32-13-24-11-22-11-25-15-15-10-14-10-19-14-15-13-8-7-10-9-8-7-8-8-7-8-14-15-9-11-7-8-10-13-16-21-10-14-14-19-1-1-1 122-3 6-6 5-2 1h-72l-10-1-8-7-2-5v-435l3-8 6-6z" fill="#1A1919"/>
<path transform="translate(768,824)" d="m0 0h33l22 3 26 8 16 8 13 9 12 11 10 13 9 16 6 17 3 14 2 21 1 29v60l-1 94-7 8-4 2h-76l-9-3-5-6-2-8v-148l-1-19-4-14-6-12-9-10-12-7-12-4-11-2h-23l-20 4-16 7-12 8-6 5-8 10-7 12-1 172-3 8-8 6-4 1h-72l-8-2-7-8-1-4v-280l3-6 6-6 4-1h72l7 1 6 5 2 3 1 5v29l8-7 10-9 15-11 14-8 22-8 23-5z" fill="#1A1919"/>
<path transform="translate(1451,823)" d="m0 0 34 1 26 3 29 6 22 6 18 8 10 9 1 2v49l-3 7-5 5-5 3-2 1-9-1-30-13-21-7-19-4-24-3h-35l-20 4-12 6-4 5-3 7 1 8 4 6 5 4 10 4 14 3 24 3 20 2 37 5 23 5 16 5 16 7 13 8 11 10 9 12 7 16 3 11 1 6v20l-3 16-6 16-6 10-9 10-7 7-14 9-15 7-26 8-19 4-30 3h-43l-29-2-20-3-20-5-27-9-23-12-11-8-4-4v-16l1-7 1-23 4-8 6-5 5-2 7 1 16 8 20 9 16 5 22 5 22 3 10 1h37l16-2 16-5 8-4 6-9v-9l-4-8-5-4-9-4-15-4-22-3-35-3-32-5-24-6-19-7-15-8-12-9-9-10-7-12-5-16-1-6v-25l4-18 4-10 7-11 7-9 11-9 13-9 15-7 23-7 26-5 22-2z" fill="#1A1919"/>
<path transform="translate(89,673)" d="m0 0h79l8 3 6 5 4 8 1 303 3 16 5 12 6 10 9 7 14 7 13 4 14 2 115 1 8 3v72l-4 6-6 4-3 1h-131l-27-3-27-6-18-6-19-9-16-11-12-11-7-8-8-11-8-14-8-21-5-20-2-14-1-273v-40l3-7 5-6z" fill="#1A1919"/>
<path transform="translate(435,830)" d="m0 0h64l6 2 8 8 1 3v276l-1 8-8 9-3 1h-79l-6-3-6-7-1-3-1-280 3-7 8-6z" fill="#1A1919"/>
<path transform="translate(456,670)" d="m0 0 18 1 12 4 11 6 10 8 7 10 5 11 3 11v19l-4 13-6 12-9 10-9 7-13 6-8 2h-23l-11-3-14-7-10-9-7-8-6-13-3-14v-9l3-15 4-10 10-13 11-9 14-7 7-2z" fill="#1A1919"/>
</svg>
